<svg xmlns="http://www.w3.org/2000/svg" viewBox="0 0 512 512" role="img" aria-label="Rebound Coach icon">
  <defs>
    <linearGradient id="bg" x1="80" y1="64" x2="432" y2="448" gradientUnits="userSpaceOnUse">
      <stop stop-color="#fb923c"/>
      <stop offset="0.52" stop-color="#f97316"/>
      <stop offset="1" stop-color="#0f172a"/>
    </linearGradient>
    <linearGradient id="shine" x1="118" y1="88" x2="378" y2="442" gradientUnits="userSpaceOnUse">
      <stop stop-color="#fff7ed" stop-opacity="0.92"/>
      <stop offset="1" stop-color="#fed7aa" stop-opacity="0.25"/>
    </linearGradient>
  </defs>
  <rect width="512" height="512" rx="116" fill="#0f172a"/>
  <rect x="34" y="34" width="444" height="444" rx="96" fill="url(#bg)"/>
  <circle cx="256" cy="256" r="148" fill="#111827" stroke="url(#shine)" stroke-width="16"/>
  <path d="M256 108v296M108 256h296" stroke="#fb923c" stroke-width="14" stroke-linecap="round" opacity="0.86"/>
  <path d="M152 152c54 44 154 44 208 0M152 360c54-44 154-44 208 0" stroke="#fb923c" stroke-width="14" stroke-linecap="round" fill="none" opacity="0.86"/>
  <path d="M178 122c42 74 42 194 0 268M334 122c-42 74-42 194 0 268" stroke="#fb923c" stroke-width="14" stroke-linecap="round" fill="none" opacity="0.86"/>
  <path d="M166 266l58 58 126-148" stroke="#f8fafc" stroke-width="34" stroke-linecap="round" stroke-linejoin="round" fill="none"/>
</svg>
